<?xml version="1.0" encoding="utf-8"?>
<!-- Generator: Adobe Illustrator 26.0.1, SVG Export Plug-In . SVG Version: 6.00 Build 0)  -->
<svg version="1.1" id="Laag_1" xmlns="http://www.w3.org/2000/svg" xmlns:xlink="http://www.w3.org/1999/xlink" x="0px" y="0px"
	 viewBox="0 0 566.93 425.2" style="enable-background:new 0 0 566.93 425.2;" xml:space="preserve">
<style type="text/css">
	.st0{fill:#FFDF8F;}
	.st1{fill:#FFBB46;}
	.st2{fill:none;stroke:#FF9428;stroke-width:4;stroke-linecap:round;stroke-linejoin:round;stroke-miterlimit:10;}
	.st3{fill:#FFFFFF;}
</style>
<g>
	<g>
		<g>
			<path class="st0" d="M225.01,131.77c-18.21,25.96-13.47,61.89-8.03,67.24c8.33,8.2,40.59,14.15,69.25,2.68
				C286.01,175.21,258.36,131.12,225.01,131.77z"/>
			<path class="st0" d="M361.15,98.15c-7.93-3.7-18.57,0.2-25.57,4.41c1.52-5.39,1.69-16.62-0.26-20.75
				c-5.28-11.19-22-11.74-27.42,0.37c-2.92,6.51-2.41,15.92,1.4,21.06c7.45,10.06,23.06,22.77,23.43,23.02
				c1.3,0.88,13.95,6.53,26.41,0.11C373.3,119.07,370.55,102.52,361.15,98.15z"/>
			<path class="st1" d="M309.33,103.38c-12.81-4.12-45.64-8.67-75.59,18.48c-3.37,3.05-6.26,6.39-8.73,9.91
				c33.34-0.66,61,43.44,61.22,69.91c6.21-2.49,12.26-5.79,17.85-10.07c22.22-17,30.69-34.8,31.01-51.15
				c0.22-11.45-3.16-17.77-6.96-23.42C323.96,110.87,315.88,105.49,309.33,103.38z"/>
		</g>
		<path class="st2" d="M247.13,123.6c3.05-5.13,7.14-6.17,9.7-4.64c2.56,1.52,3.6,5.61,0.56,10.74c3.05-5.13,8.87-5.69,10.79-3.41
			c1.93,2.28,1.57,6.48-2.98,10.33c4.55-3.85,8.76-3.5,10.68-1.22c1.93,2.28,1.57,6.48-2.98,10.33c4.55-3.85,8.76-3.5,10.68-1.22
			c1.93,2.28,1.57,6.48-2.98,10.33c4.55-3.85,8.76-3.5,10.68-1.22c1.93,2.28,1.57,6.48-2.98,10.33c4.55-3.85,9.69-3.33,11.22-0.52
			c1.85,3.4-0.49,7.98-6.02,10.19c5.54-2.21,9.41-0.55,10.52,2.22s-0.56,6.65-6.1,8.86"/>
		<path class="st2" d="M271.73,120.91c2.1-4.95,5.59-6.34,8.02-5.25c2.43,1.09,3.81,4.65,1.71,9.6c2.1-4.95,6.87-4.53,9.03-2.93
			c1.84,1.36,2.46,6.76-1.86,9.9c4.32-3.14,8.02-2.51,9.55-0.32c1.53,2.2,0.9,5.97-3.42,9.11c4.32-3.14,8.02-2.51,9.55-0.32
			s2.39,5.99-2.54,8.05c4.93-2.06,8.38-0.6,9.36,1.9s-0.5,6.02-5.43,8.08"/>
	</g>
	<g>
		<line class="st2" x1="228.08" y1="166.54" x2="231.19" y2="185.89"/>
		<line class="st2" x1="219.99" y1="177.94" x2="239.29" y2="174.49"/>
	</g>
</g>
<g>
	<path class="st3" d="M124.66,284.43c0,0.91,0.11,2.76,0.34,5.55c0.23,2.8,0.34,4.98,0.34,6.54c0,6.2-1.61,10.08-4.84,11.64
		c-0.71,0.3-1.51,0.45-2.42,0.45c-1.11,0-2.09-0.15-2.95-0.45c-0.96-0.3-1.75-0.92-2.38-1.85c-0.63-0.93-1-1.93-1.1-2.98l-1.59,1.13
		c-3.58,3.37-7.98,5.06-13.22,5.06c-1.41,0-3.12-0.18-5.14-0.53c-7.4-1.36-12.8-5.64-16.17-12.84c-1.86-3.93-2.8-7.83-2.8-11.71
		c0-5.54,1.84-10.46,5.52-14.77c3.68-4.31,8.59-7.52,14.73-9.63c1.56-0.5,3.07-0.76,4.53-0.76c3.68,0,7.78,1.64,12.32,4.91
		c0.2,0.15,0.52,0.44,0.94,0.87c0.43,0.43,0.72,0.72,0.87,0.87c0.1-1.91,0.76-3.37,1.96-4.38c1.21-1.01,2.62-1.51,4.23-1.51
		c1.81,0,3.4,0.6,4.76,1.81c1.36,1.21,2.04,2.87,2.04,4.99V284.43z M86.73,284.66c0,4.13,1.07,7.37,3.21,9.71
		c2.14,2.34,5.07,3.51,8.8,3.51c4.13,0,7.32-1.31,9.56-3.93c2.24-2.62,3.36-5.89,3.36-9.82c0-4.08-1.22-7.25-3.66-9.52
		c-2.44-2.27-5.35-3.4-8.73-3.4c-3.43,0-6.37,1.18-8.84,3.55C87.96,277.13,86.73,280.43,86.73,284.66z"/>
</g>
<g>
	<path class="st3" d="M212.08,301.96c-1.41-1.61-2.12-3.27-2.12-4.99c0-1.56,0.57-2.9,1.7-4c1.13-1.11,2.43-1.66,3.89-1.66
		c1.66,0,3.02,0.71,4.08,2.12c0.86,1.21,2.1,2.33,3.74,3.36c1.64,1.03,3.26,1.55,4.87,1.55c2.42,0,4.33-1.28,5.74-3.85
		c0.15-0.3,0.23-0.6,0.23-0.91c0-0.55-0.18-1.08-0.53-1.59c-0.35-0.5-0.71-0.83-1.06-0.98c-1.16-0.55-3.32-1.41-6.5-2.57
		c-3.17-1.16-5.57-2.16-7.18-3.02c-5.24-2.82-7.86-6.75-7.86-11.79c0-0.15,0.01-0.38,0.04-0.68c0.02-0.3,0.04-0.53,0.04-0.68
		c0.15-2.01,1.1-4.18,2.83-6.5c1.74-2.32,3.59-3.9,5.55-4.76c3.37-1.36,6.5-2.04,9.37-2.04c4.13,0,7.88,1.41,11.26,4.23
		c1.61,1.26,2.87,3.15,3.78,5.67c0.05,0.1,0.08,0.28,0.08,0.53c0,0.6-0.16,1.27-0.49,2c-0.33,0.73-0.72,1.22-1.17,1.47
		c-0.96,0.81-2.01,1.21-3.17,1.21c-1.31,0-3.17-0.87-5.59-2.61c-2.42-1.74-4.23-2.61-5.44-2.61c-1.21,0-2.37,0.56-3.48,1.66
		c-0.76,0.86-1.13,1.76-1.13,2.72c0,0.71,0.12,1.16,0.38,1.36c1.31,1.46,2.92,2.67,4.84,3.63c0.96,0.5,3.11,1.51,6.46,3.02
		c3.35,1.51,5.86,2.8,7.52,3.85c2.52,1.71,3.78,4.53,3.78,8.46c0,2.37-0.52,4.66-1.55,6.88c-1.03,2.22-2.48,3.96-4.34,5.21
		c-0.05,0-0.35,0.15-0.91,0.45c-0.55,0.3-0.91,0.48-1.06,0.53c-0.15,0.05-0.5,0.2-1.06,0.45c-0.55,0.25-0.96,0.43-1.21,0.53
		c-0.25,0.1-0.65,0.24-1.21,0.42c-0.55,0.18-1.03,0.3-1.44,0.38s-0.88,0.15-1.44,0.23c-0.55,0.08-1.11,0.11-1.66,0.11
		c-4.79-0.2-8.6-0.76-11.45-1.66C216.38,306.19,214,304.48,212.08,301.96z"/>
</g>
<g>
	<path class="st3" d="M317.21,259.2h0.08c1.06,0,1.84,0.57,2.34,1.7c0.5,1.13,0.76,2.03,0.76,2.68v1.59c0,1.92-0.22,3.25-0.64,4
		c-0.43,0.76-1.55,1.49-3.36,2.19c-0.71,0.3-1.67,0.63-2.91,0.98c-1.24,0.35-2.22,0.67-2.95,0.94c-0.73,0.28-1.51,0.68-2.34,1.21
		c-0.83,0.53-1.46,1.27-1.89,2.23c-0.43,0.96-0.69,2.17-0.79,3.63c-0.1,1.81-0.29,5.49-0.57,11.03c-0.28,5.54-0.52,9.8-0.72,12.77
		c-0.15,1.71-0.81,2.82-1.96,3.32c-1.66,0.45-3.15,0.68-4.46,0.68c-1.41,0-2.64-0.2-3.7-0.6c-0.86-0.3-1.61-1.1-2.27-2.38
		c-0.65-1.28-1.01-2.5-1.06-3.66c-0.15-5.79-0.23-11.61-0.23-17.45c0-3.68,0.05-9.29,0.15-16.85c0.05-2.12,0.86-3.97,2.42-5.55
		c1.56-1.59,3.3-2.38,5.21-2.38c2.22,0,3.98,0.98,5.29,2.95c0.2,0.25,0.35,0.57,0.45,0.94c0.1,0.38,0.2,0.83,0.3,1.36
		c0.1,0.53,0.18,0.9,0.23,1.1c2.97-4.38,6.65-6.57,11.03-6.57C315.97,259.05,316.5,259.1,317.21,259.2z"/>
</g>
<g>
	<path class="st3" d="M353.45,259.05c6.45,0.3,12.15,2.77,17.11,7.4c4.96,4.64,7.44,10.53,7.44,17.68v0.91
		c-0.2,6.4-2.72,12.01-7.56,16.85c-4.84,4.84-11.03,7.25-18.59,7.25c-0.15,0-0.39-0.01-0.72-0.04c-0.33-0.03-0.59-0.04-0.79-0.04
		c-6.25-0.3-11.81-2.72-16.7-7.25c-4.89-4.53-7.33-10.23-7.33-17.08c0-0.05,0.01-0.15,0.04-0.3c0.03-0.15,0.04-0.28,0.04-0.38
		c0-6.95,2.47-12.86,7.4-17.72c4.94-4.86,11.03-7.29,18.28-7.29H353.45z M352.01,297.5c3.93,0,7.09-1.35,9.48-4.04
		c2.39-2.69,3.59-5.83,3.59-9.41c0-3.58-1.2-6.66-3.59-9.26c-2.39-2.59-5.28-4.02-8.65-4.27c-0.1,0-0.26-0.01-0.49-0.04
		c-0.23-0.03-0.39-0.04-0.49-0.04c-3.53,0-6.51,1.41-8.95,4.23c-2.44,2.82-3.71,5.82-3.82,8.99v0.6c0,3.43,1.22,6.5,3.66,9.22
		c2.44,2.72,5.18,4.08,8.2,4.08c0.45,0,0.78-0.03,0.98-0.08H352.01z"/>
</g>
<g>
	<path class="st3" d="M387.72,264.11c0.1-1.06,0.91-2.09,2.42-3.1c1.51-1.01,3.12-1.51,4.84-1.51c1.86,0,3.43,0.73,4.68,2.19
		c0.2,0.25,0.39,0.59,0.57,1.02c0.18,0.43,0.35,0.76,0.53,0.98c0.18,0.23,0.42,0.34,0.72,0.34c0.5,0,1.13-0.28,1.89-0.83
		c3.58-2.77,7.58-4.16,12.01-4.16c1.76,0,3.63,0.23,5.59,0.68c7.86,1.86,13.27,6.47,16.24,13.83c1.21,3.07,1.81,6.4,1.81,9.97
		c0,6.04-1.31,11.13-3.93,15.26c-2.62,4.13-6.27,7.03-10.96,8.69c-2.27,0.76-4.91,1.13-7.93,1.13c-1.92,0-3.6-0.1-5.06-0.3
		c-0.86-0.1-2.32-0.8-4.38-2.12c-2.07-1.31-3.58-1.96-4.53-1.96c-0.25,0-0.48,2.56-0.68,7.67c-0.2,5.11-0.3,8.5-0.3,10.16
		c-0.05,1.91-0.44,3.43-1.17,4.53c-0.73,1.11-2.05,1.74-3.97,1.89c-0.45,0.05-1.11,0.08-1.96,0.08c-1.51,0-2.75-0.14-3.7-0.42
		c-0.96-0.28-1.65-0.74-2.08-1.4c-0.43-0.65-0.71-1.3-0.83-1.93c-0.13-0.63-0.19-1.5-0.19-2.61c0-0.56-0.01-2.05-0.04-4.5
		c-0.03-2.44-0.04-4.6-0.04-6.46C387.27,289.9,387.42,274.18,387.72,264.11z M413.56,297.5h0.83c3.78,0,6.6-1.35,8.46-4.04
		c1.86-2.69,2.9-5.83,3.1-9.41v-0.76c0-3.37-1.12-6.3-3.36-8.76c-2.24-2.47-4.87-3.8-7.9-4h-1.21c-3.93,0-7,1.26-9.22,3.78
		c-2.22,2.52-3.32,5.57-3.32,9.14v0.38c0.1,4.38,1.23,7.76,3.4,10.12C406.51,296.32,409.58,297.5,413.56,297.5z"/>
</g>
<g>
	<path class="st3" d="M457.44,308.31h-0.68c-0.3,0-0.81,0.01-1.51,0.04c-0.71,0.03-1.21,0.04-1.51,0.04c-2.57,0-4.23-1.13-4.99-3.4
		c-0.25-0.76-0.38-1.69-0.38-2.8c0-1.71-0.01-4.26-0.04-7.63c-0.03-3.37-0.04-5.89-0.04-7.56c0-1.36,0.01-3.45,0.04-6.27
		c0.03-2.82,0.04-4.91,0.04-6.27c0-1.76-0.01-4.43-0.04-8.01c-0.03-3.58-0.04-6.27-0.04-8.08c0-1.36,0.01-3.39,0.04-6.08
		c0.03-2.69,0.04-4.72,0.04-6.08c0-1.86,0.46-3.2,1.4-4c0.93-0.8,2.68-1.21,5.25-1.21c0.25,0,0.67-0.01,1.25-0.04
		c0.58-0.03,0.99-0.04,1.25-0.04c1.16,0,2.16,0.4,3.02,1.21c0.86,0.81,1.31,1.79,1.36,2.95c0.1,1.61,0.15,4.61,0.15,8.99
		c0,4.38,0.03,7.53,0.08,9.44c0,0.35,0.16,0.59,0.49,0.72c0.33,0.13,0.62,0.06,0.87-0.19c3.37-3.17,7.58-4.76,12.62-4.76
		c2.82,0,5.45,0.59,7.9,1.78c2.44,1.18,4.42,2.88,5.93,5.1c1.91,2.82,3.14,5.91,3.66,9.26c0.53,3.35,0.79,7.87,0.79,13.56
		c0,1.56-0.03,3.96-0.08,7.18c-0.05,3.22-0.08,5.64-0.08,7.25c0,1.96-0.64,3.31-1.93,4.04c-1.28,0.73-3.14,1.1-5.55,1.1
		c-0.86,0-1.44-0.1-1.74-0.3c-1.31-0.05-2.34-0.57-3.1-1.55c-0.76-0.98-1.16-1.98-1.21-2.98c-0.15-2.47-0.23-6.17-0.23-11.11
		c0-1.36,0.01-3.4,0.04-6.12c0.03-2.72,0.04-4.73,0.04-6.04c0-2.92-0.91-5.22-2.72-6.91c-1.81-1.69-3.93-2.53-6.35-2.53
		c-2.07,0-3.88,0.65-5.44,1.96c-1.56,1.31-2.47,3.2-2.72,5.67c-0.4,3.98-0.83,12.22-1.28,24.71
		C461.89,306.65,460.36,308.31,457.44,308.31z"/>
</g>
<g>
	<path class="st3" d="M506.39,353.62c-4.35-0.8-6.21-2.93-5.57-6.4c0.29-1.56,1.41-4.24,3.37-8.02c0.75-1.41,2.39-4.03,4.92-7.85
		c2.53-3.82,4.25-6.88,5.16-9.17c0.13-0.33,0.26-0.83,0.38-1.51c0.39-2.11,0.24-4.73-0.45-7.88c-0.69-3.15-1.68-6.63-2.98-10.46
		c-1.3-3.82-2.05-6.14-2.26-6.95c-3.96-15.55-6.29-25.26-6.99-29.11c-0.33-2.03-0.4-3.59-0.2-4.67c0.31-1.7,1.25-2.78,2.81-3.23
		c1.56-0.45,3.87-0.4,6.93,0.16c3.47,0.64,5.94,1.81,7.42,3.52c1.48,1.71,2.5,4.45,3.08,8.21c1.61,10.77,3.55,20.26,5.84,28.48
		c0.18,0.53,0.55,0.84,1.09,0.94c0.54,0.1,1.03-0.09,1.48-0.57c0.62-0.73,2.77-4.2,6.44-10.41c3.67-6.21,7.34-11.58,11.02-16.11
		c3.68-4.53,6.74-6.56,9.19-6.11c2.99,0.55,5.43,1.79,7.33,3.72c1.89,1.93,2.7,3.64,2.43,5.14c-0.7,3.81-2.48,7.94-5.33,12.41
		c-2.86,4.47-6.45,9.32-10.79,14.57c-4.34,5.25-7.18,8.87-8.53,10.87c-14.22,21.21-22.93,33.98-26.11,38.32
		c-0.76,1.06-2.06,1.76-3.92,2.13C510.28,353.98,508.36,353.98,506.39,353.62z"/>
</g>
<g>
	<path class="st3" d="M200.35,279.04c0,0.55,0.07,1.67,0.21,3.36s0.21,3.01,0.21,3.96c0,3.75-0.98,6.1-2.93,7.04
		c-0.43,0.18-0.91,0.27-1.46,0.27c-0.67,0-1.27-0.09-1.78-0.27c-0.58-0.18-1.06-0.56-1.44-1.12c-0.38-0.56-0.6-1.17-0.66-1.81
		l-0.96,0.69c-2.16,2.04-4.83,3.06-8,3.06c-0.85,0-1.89-0.11-3.11-0.32c-4.48-0.82-7.74-3.41-9.79-7.77
		c-1.13-2.38-1.69-4.74-1.69-7.09c0-3.35,1.11-6.33,3.34-8.94c2.23-2.61,5.2-4.55,8.92-5.83c0.95-0.3,1.86-0.46,2.74-0.46
		c2.23,0,4.71,0.99,7.45,2.97c0.12,0.09,0.31,0.27,0.57,0.53c0.26,0.26,0.43,0.43,0.53,0.53c0.06-1.16,0.46-2.04,1.19-2.65
		c0.73-0.61,1.59-0.91,2.56-0.91c1.1,0,2.06,0.37,2.88,1.1s1.23,1.74,1.23,3.02V279.04z M177.39,279.17c0,2.5,0.65,4.46,1.94,5.88
		c1.3,1.42,3.07,2.13,5.33,2.13c2.5,0,4.43-0.79,5.79-2.38c1.36-1.59,2.04-3.57,2.04-5.95c0-2.47-0.74-4.39-2.22-5.76
		c-1.48-1.37-3.24-2.06-5.28-2.06c-2.07,0-3.86,0.72-5.35,2.15C178.14,274.62,177.39,276.61,177.39,279.17z"/>
</g>
<g>
	<path class="st3" d="M199.86,303.94h-28.22c-0.5,0-0.9,0.41-0.9,0.9v2.27c0,0.5,0.41,0.9,0.9,0.9h28.22c0.5,0,0.9-0.41,0.9-0.9
		v-2.27C200.76,304.35,200.36,303.94,199.86,303.94z"/>
</g>
<g>
	<path class="st3" d="M281.83,302.02c0.12,1.3-0.4,2.61-1.46,3.38c-0.62,0.46-1.48,0.93-2.68,1.39c-1.43,0.55-2.66,0.89-3.64,1.09
		c-0.14,0.02-0.27,0.05-0.4,0.08c-0.16,0.02-0.31,0.04-0.45,0.07c-0.69,0.1-1.37,0.14-2.05,0.14c-2.58,0-4.9-0.6-6.97-1.8
		c-2.08-1.2-3.64-3.02-4.68-5.46c-0.61-1.44-0.92-5.37-0.92-11.79c0-0.82,0.01-2.02,0.03-3.6c0.02-1.57,0.03-2.73,0.03-3.48
		c0-4.67-0.22-7.11-0.66-7.33c-0.35-0.17-0.85-0.26-1.51-0.26c-0.22,0-0.58,0.01-1.08,0.03c-0.5,0.02-0.86,0.03-1.08,0.03
		c-1.22,0-1.96-0.26-2.22-0.79c-0.31-0.78-0.46-1.48-0.46-2.09c0-1.31,0.47-2.5,1.4-3.57c0.94-1.07,2.11-1.69,3.51-1.87
		c1.66-0.25,2.6-1.52,2.82-3.79c0-0.09,0.02-0.46,0.07-1.11c0.04-0.66,0.08-1.1,0.1-1.34c0.02-0.24,0.08-0.64,0.16-1.21
		c0.09-0.56,0.19-0.99,0.3-1.3c0.1-0.31,0.24-0.67,0.42-1.08c0.17-0.42,0.39-0.75,0.66-1.02c0.26-0.26,0.55-0.48,0.85-0.66
		c0.87-0.48,2.16-0.72,3.87-0.72c0.96,0,1.73,0.13,2.28,0.39c0.39,0.04,0.71,0.19,0.95,0.43c0.24,0.24,0.42,0.58,0.52,1.02
		c0.11,0.44,0.19,0.83,0.23,1.18s0.08,0.8,0.1,1.34c0.02,0.54,0.03,0.87,0.03,1.01c0.22,3.1,0.59,4.91,1.11,5.41
		c0.52,0.5,2.3,0.8,5.3,0.89h0.13c0.7,0.04,1.28,0.11,1.74,0.2c0.46,0.09,0.87,0.15,1.25,0.2c0.37,0.03,0.66,0.15,0.85,0.35
		c0.2,0.2,0.37,0.33,0.52,0.39c0.15,0.07,0.26,0.27,0.33,0.62s0.11,0.58,0.13,0.69c0.02,0.11,0.04,0.45,0.07,1.02
		c0.02,0.57,0.03,0.96,0.03,1.18c-0.04,1.79-0.64,2.99-1.8,3.6c-1.16,0.61-2.74,0.92-4.74,0.92c-0.39,0-0.98-0.01-1.77-0.03
		s-1.36-0.03-1.7-0.03c-0.61,0-0.99,0.12-1.15,0.36c-0.15,0.24-0.23,0.97-0.23,2.2c0,0.31,0.01,1.15,0.03,2.52
		c0.02,1.37,0.03,2.62,0.03,3.76v6.35c0,2.54,0.04,4.44,0.13,5.7c0.13,1.56,0.79,2.35,1.97,2.35h0.2c3.39-0.66,5.28-1.01,5.64-1.04
		l0.05-0.01c0,0,3.28-0.95,3.61,2.69l0.13,1.54L281.83,302.02z"/>
</g>
<g>
	<path class="st3" d="M163.38,302.87c0.12,1.3-0.4,2.61-1.46,3.38c-0.62,0.46-1.48,0.93-2.68,1.39c-1.43,0.55-2.66,0.89-3.64,1.09
		c-0.14,0.02-0.27,0.05-0.4,0.08c-0.16,0.02-0.31,0.04-0.45,0.07c-0.69,0.1-1.37,0.14-2.05,0.14c-2.58,0-4.9-0.6-6.97-1.8
		c-2.08-1.2-3.64-3.02-4.68-5.46c-0.61-1.44-0.92-5.37-0.92-11.79c0-0.82,0.01-2.02,0.03-3.6c0.02-1.57,0.03-2.73,0.03-3.48
		c0-4.67-0.22-7.11-0.66-7.33c-0.35-0.17-0.85-0.26-1.51-0.26c-0.22,0-0.58,0.01-1.08,0.03c-0.5,0.02-0.86,0.03-1.08,0.03
		c-1.22,0-1.96-0.26-2.22-0.79c-0.31-0.78-0.46-1.48-0.46-2.09c0-1.31,0.47-2.5,1.4-3.57c0.94-1.07,2.11-1.69,3.51-1.87
		c1.66-0.25,2.6-1.52,2.82-3.79c0-0.09,0.02-0.46,0.07-1.11c0.04-0.66,0.08-1.1,0.1-1.34c0.02-0.24,0.08-0.64,0.16-1.21
		c0.09-0.56,0.19-0.99,0.3-1.3c0.1-0.31,0.24-0.67,0.42-1.08c0.17-0.42,0.39-0.75,0.66-1.02c0.26-0.26,0.55-0.48,0.85-0.66
		c0.87-0.48,2.16-0.72,3.87-0.72c0.96,0,1.73,0.13,2.28,0.39c0.39,0.04,0.71,0.19,0.95,0.43c0.24,0.24,0.42,0.58,0.52,1.02
		c0.11,0.44,0.19,0.83,0.23,1.18c0.04,0.35,0.08,0.8,0.1,1.34c0.02,0.54,0.03,0.87,0.03,1.01c0.22,3.1,0.59,4.91,1.11,5.41
		c0.52,0.5,2.3,0.8,5.3,0.89h0.13c0.7,0.04,1.28,0.11,1.74,0.2c0.46,0.09,0.87,0.15,1.25,0.2c0.37,0.03,0.66,0.15,0.85,0.35
		c0.2,0.2,0.37,0.33,0.52,0.39c0.15,0.07,0.26,0.27,0.33,0.62s0.11,0.58,0.13,0.69c0.02,0.11,0.04,0.45,0.07,1.02
		c0.02,0.57,0.03,0.96,0.03,1.18c-0.04,1.79-0.64,2.99-1.8,3.6c-1.16,0.61-2.74,0.92-4.74,0.92c-0.39,0-0.98-0.01-1.77-0.03
		s-1.36-0.03-1.7-0.03c-0.61,0-0.99,0.12-1.15,0.36c-0.15,0.24-0.23,0.97-0.23,2.2c0,0.31,0.01,1.15,0.03,2.52
		c0.02,1.37,0.03,2.62,0.03,3.76v6.35c0,2.54,0.04,4.44,0.13,5.7c0.13,1.56,0.79,2.35,1.97,2.35h0.2c3.39-0.66,5.28-1.01,5.64-1.04
		l0.05-0.01c0,0,3.28-0.95,3.61,2.69l0.13,1.54L163.38,302.87z"/>
</g>
<g>
	<path class="st3" d="M67.53,241.34c0,2.33-0.58,4.32-1.74,5.99c-1.16,1.67-2.67,2.5-4.52,2.5c-0.72,0-1.48-0.13-2.28-0.4
		c-0.81-0.27-1.77-0.67-2.91-1.21s-1.97-0.89-2.5-1.07c-3.94-1.49-7.84-2.24-11.72-2.24c-5.07,0-9.63,1.24-13.69,3.71
		s-7.1,6.16-9.12,11.05c-1.49,3.64-2.24,7.28-2.24,10.91c0,4.95,1.28,9.47,3.85,13.55s6.29,7.08,11.18,8.99
		c3.82,1.43,7.45,2.15,10.91,2.15c4.83,0,9.48-1.16,13.95-3.49c2.27-1.13,3.88-1.7,4.83-1.7c1.13,0,2.1,0.45,2.91,1.34
		c0.81,0.89,1.92,2.53,3.35,4.92c0.54,0.95,0.81,1.82,0.81,2.59c0,0.83-0.33,1.64-0.98,2.42c-0.66,0.78-1.25,1.33-1.79,1.65
		c-0.54,0.33-1.4,0.85-2.59,1.57c-6.02,3.64-12.79,5.46-20.3,5.46c-2.74,0-5.37-0.21-7.87-0.63c-3.22-0.54-6.26-1.25-9.12-2.15
		c-2.86-0.89-5.95-2.34-9.26-4.34c-3.31-2-6.13-4.35-8.45-7.07c-2.33-2.71-4.28-6.31-5.86-10.78S0,275.6,0,270.05
		c0-8.83,2.53-16.59,7.6-23.3s11.54-11.4,19.41-14.09c3.76-1.25,8.5-1.88,14.22-1.88c4.95,0,9.68,0.6,14.18,1.79
		c4.5,1.19,8.12,3.04,10.87,5.55C67.12,238.72,67.53,239.79,67.53,241.34z"/>
</g>
</svg>
